<svg width="17" height="17" viewBox="0 0 17 17" fill="none" xmlns="http://www.w3.org/2000/svg">
<path d="M3.54163 12.0417H2.83329C2.45757 12.0417 2.09723 11.8924 1.83156 11.6267C1.56588 11.3611 1.41663 11.0007 1.41663 10.625V3.54167C1.41663 3.16594 1.56588 2.80561 1.83156 2.53993C2.09723 2.27426 2.45757 2.125 2.83329 2.125H14.1666C14.5424 2.125 14.9027 2.27426 15.1684 2.53993C15.434 2.80561 15.5833 3.16594 15.5833 3.54167V10.625C15.5833 11.0007 15.434 11.3611 15.1684 11.6267C14.9027 11.8924 14.5424 12.0417 14.1666 12.0417H13.4583M8.49996 10.625L12.0416 14.875H4.95829L8.49996 10.625Z" stroke="#110F48" stroke-width="2" stroke-linecap="round" stroke-linejoin="round"/>
</svg>
