<svg width="17" height="17" viewBox="0 0 17 17" fill="none" xmlns="http://www.w3.org/2000/svg">
<path d="M14.875 11.3333V5.66664C14.8747 5.41821 14.8092 5.17421 14.6848 4.95913C14.5605 4.74404 14.3818 4.56544 14.1667 4.44122L9.20833 1.60789C8.99297 1.48355 8.74868 1.41809 8.5 1.41809C8.25132 1.41809 8.00703 1.48355 7.79167 1.60789L2.83333 4.44122C2.61819 4.56544 2.43949 4.74404 2.31516 4.95913C2.19083 5.17421 2.12525 5.41821 2.125 5.66664V11.3333C2.12525 11.5817 2.19083 11.8257 2.31516 12.0408C2.43949 12.2559 2.61819 12.4345 2.83333 12.5587L7.79167 15.3921C8.00703 15.5164 8.25132 15.5819 8.5 15.5819C8.74868 15.5819 8.99297 15.5164 9.20833 15.3921L14.1667 12.5587C14.3818 12.4345 14.5605 12.2559 14.6848 12.0408C14.8092 11.8257 14.8747 11.5817 14.875 11.3333Z" stroke="#110F48" stroke-width="2" stroke-linecap="round" stroke-linejoin="round"/>
<path d="M2.31625 4.93005L8.5 8.50714L14.6838 4.93005" stroke="#110F48" stroke-width="2" stroke-linecap="round" stroke-linejoin="round"/>
<path d="M8.5 15.64V8.5" stroke="#110F48" stroke-width="2" stroke-linecap="round" stroke-linejoin="round"/>
</svg>
